HIERARCHY
ROOT mixamorig:Hips
{
	OFFSET 0.00 0.00 0.00
	CHANNELS 6 Xposition Yposition Zposition Zrotation Yrotation Xrotation
	JOINT mixamorig:Spine
	{
		OFFSET	0.0000	9.9235	-1.2273
		CHANNELS 3 Zrotation Yrotation Xrotation
		JOINT mixamorig:Spine1
		{
			OFFSET	-0.0001	11.6455	-1.4224
			CHANNELS 3 Zrotation Yrotation Xrotation
			JOINT mixamorig:Spine2
			{
				OFFSET	0.0001	13.3602	-1.6265
				CHANNELS 3 Zrotation Yrotation Xrotation
				JOINT mixamorig:Neck
				{
					OFFSET	0.0000	15.0325	0.7929
					CHANNELS 3 Zrotation Yrotation Xrotation
					JOINT mixamorig:Head
					{
						OFFSET	-0.0000	10.3218	3.1424
						CHANNELS 3 Zrotation Yrotation Xrotation
						JOINT mixamorig:HeadTop_End
						{
							OFFSET	0.0002	18.4747	6.6364
							CHANNELS 3 Zrotation Yrotation Xrotation
							End Site
							{
								OFFSET 0.0000 0.0000 0.0000
							}
						}
						JOINT mixamorig:LeftEye
						{
							OFFSET	2.9479	7.6817	9.1207
							CHANNELS 3 Zrotation Yrotation Xrotation
							End Site
							{
								OFFSET 0.0000 0.0000 0.0000
							}
						}
						JOINT mixamorig:RightEye
						{
							OFFSET	-2.9445	7.6817	9.1205
							CHANNELS 3 Zrotation Yrotation Xrotation
							End Site
							{
								OFFSET 0.0000 0.0000 0.0000
							}
						}
					}
				}
				JOINT mixamorig:LeftShoulder
				{
					OFFSET	6.1059	9.1104	0.7056
					CHANNELS 3 Zrotation Yrotation Xrotation
					JOINT mixamorig:LeftArm
					{
						OFFSET	12.6532	-0.3431	-2.6009
						CHANNELS 3 Zrotation Yrotation Xrotation
						JOINT mixamorig:LeftForeArm
						{
							OFFSET	27.3517	-0.9645	-1.4034
							CHANNELS 3 Zrotation Yrotation Xrotation
							JOINT mixamorig:LeftHand
							{
								OFFSET	27.5619	-0.7072	1.5500
								CHANNELS 3 Zrotation Yrotation Xrotation
								JOINT mixamorig:LeftHandMiddle1
								{
									OFFSET	12.6630	-1.3962	0.9548
									CHANNELS 3 Zrotation Yrotation Xrotation
									JOINT mixamorig:LeftHandMiddle2
									{
										OFFSET	3.6093	-0.1669	0.0778
										CHANNELS 3 Zrotation Yrotation Xrotation
										JOINT mixamorig:LeftHandMiddle3
										{
											OFFSET	3.4004	-0.6274	0.1148
											CHANNELS 3 Zrotation Yrotation Xrotation
											End Site
											{
												OFFSET 3.6205 -0.6493 0.1199
											}
										}
									}
								}
								JOINT mixamorig:LeftHandThumb1
								{
									OFFSET	3.3268	-2.0474	3.5790
									CHANNELS 3 Zrotation Yrotation Xrotation
									JOINT mixamorig:LeftHandThumb2
									{
										OFFSET	3.4890	-1.4806	2.8548
										CHANNELS 3 Zrotation Yrotation Xrotation
										JOINT mixamorig:LeftHandThumb3
										{
											OFFSET	3.4086	-1.7658	2.1133
											CHANNELS 3 Zrotation Yrotation Xrotation
											End Site
											{
												OFFSET 2.7231 -1.1597 1.7903
											}
										}
									}
								}
								JOINT mixamorig:LeftHandIndex1
								{
									OFFSET	11.9722	-1.1061	3.7324
									CHANNELS 3 Zrotation Yrotation Xrotation
									JOINT mixamorig:LeftHandIndex2
									{
										OFFSET	3.8387	-0.6406	-0.0310
										CHANNELS 3 Zrotation Yrotation Xrotation
										JOINT mixamorig:LeftHandIndex3
										{
											OFFSET	3.3346	-0.7374	-0.0133
											CHANNELS 3 Zrotation Yrotation Xrotation
											End Site
											{
												OFFSET 2.9714 -0.8030 0.0009
											}
										}
									}
								}
								JOINT mixamorig:LeftHandRing1
								{
									OFFSET	12.1659	-1.6805	-1.2769
									CHANNELS 3 Zrotation Yrotation Xrotation
									JOINT mixamorig:LeftHandRing2
									{
										OFFSET	3.5925	-0.2366	-0.0771
										CHANNELS 3 Zrotation Yrotation Xrotation
										JOINT mixamorig:LeftHandRing3
										{
											OFFSET	3.2906	-0.3266	-0.0615
											CHANNELS 3 Zrotation Yrotation Xrotation
											End Site
											{
												OFFSET 3.5423 -0.9211 -0.0200
											}
										}
									}
								}
								JOINT mixamorig:LeftHandPinky1
								{
									OFFSET	11.0508	-2.1872	-3.8040
									CHANNELS 3 Zrotation Yrotation Xrotation
									JOINT mixamorig:LeftHandPinky2
									{
										OFFSET	4.1236	-0.3047	0.1212
										CHANNELS 3 Zrotation Yrotation Xrotation
										JOINT mixamorig:LeftHandPinky3
										{
											OFFSET	2.5805	-0.2597	0.0823
											CHANNELS 3 Zrotation Yrotation Xrotation
											End Site
											{
												OFFSET 2.9027 -0.3379 0.0963
											}
										}
									}
								}
							}
						}
					}
				}
				JOINT mixamorig:RightShoulder
				{
					OFFSET	-6.1057	9.1105	0.7056
					CHANNELS 3 Zrotation Yrotation Xrotation
					JOINT mixamorig:RightArm
					{
						OFFSET	-12.6532	-0.3429	-2.6009
						CHANNELS 3 Zrotation Yrotation Xrotation
						JOINT mixamorig:RightForeArm
						{
							OFFSET	-27.3518	-0.9642	-1.4034
							CHANNELS 3 Zrotation Yrotation Xrotation
							JOINT mixamorig:RightHand
							{
								OFFSET	-27.5619	-0.7068	1.5501
								CHANNELS 3 Zrotation Yrotation Xrotation
								JOINT mixamorig:RightHandMiddle1
								{
									OFFSET	-12.6630	-1.3960	0.9549
									CHANNELS 3 Zrotation Yrotation Xrotation
									JOINT mixamorig:RightHandMiddle2
									{
										OFFSET	-3.6093	-0.1669	0.0778
										CHANNELS 3 Zrotation Yrotation Xrotation
										JOINT mixamorig:RightHandMiddle3
										{
											OFFSET	-3.4004	-0.6273	0.1148
											CHANNELS 3 Zrotation Yrotation Xrotation
											End Site
											{
												OFFSET -3.6205 -0.6492 0.1199
											}
										}
									}
								}
								JOINT mixamorig:RightHandThumb1
								{
									OFFSET	-3.3269	-2.0474	3.5790
									CHANNELS 3 Zrotation Yrotation Xrotation
									JOINT mixamorig:RightHandThumb2
									{
										OFFSET	-3.4890	-1.4805	2.8548
										CHANNELS 3 Zrotation Yrotation Xrotation
										JOINT mixamorig:RightHandThumb3
										{
											OFFSET	-3.4086	-1.7658	2.1133
											CHANNELS 3 Zrotation Yrotation Xrotation
											End Site
											{
												OFFSET -2.7231 -1.1596 1.7903
											}
										}
									}
								}
								JOINT mixamorig:RightHandIndex1
								{
									OFFSET	-11.9722	-1.1059	3.7324
									CHANNELS 3 Zrotation Yrotation Xrotation
									JOINT mixamorig:RightHandIndex2
									{
										OFFSET	-3.8387	-0.6406	-0.0310
										CHANNELS 3 Zrotation Yrotation Xrotation
										JOINT mixamorig:RightHandIndex3
										{
											OFFSET	-3.3346	-0.7373	-0.0133
											CHANNELS 3 Zrotation Yrotation Xrotation
											End Site
											{
												OFFSET -2.9715 -0.8029 0.0009
											}
										}
									}
								}
								JOINT mixamorig:RightHandRing1
								{
									OFFSET	-12.1659	-1.6803	-1.2769
									CHANNELS 3 Zrotation Yrotation Xrotation
									JOINT mixamorig:RightHandRing2
									{
										OFFSET	-3.5925	-0.2366	-0.0771
										CHANNELS 3 Zrotation Yrotation Xrotation
										JOINT mixamorig:RightHandRing3
										{
											OFFSET	-3.2906	-0.3265	-0.0615
											CHANNELS 3 Zrotation Yrotation Xrotation
											End Site
											{
												OFFSET -3.5423 -0.9210 -0.0200
											}
										}
									}
								}
								JOINT mixamorig:RightHandPinky1
								{
									OFFSET	-11.0508	-2.1870	-3.8040
									CHANNELS 3 Zrotation Yrotation Xrotation
									JOINT mixamorig:RightHandPinky2
									{
										OFFSET	-4.1236	-0.3046	0.1212
										CHANNELS 3 Zrotation Yrotation Xrotation
										JOINT mixamorig:RightHandPinky3
										{
											OFFSET	-2.5805	-0.2597	0.0823
											CHANNELS 3 Zrotation Yrotation Xrotation
											End Site
											{
												OFFSET -2.9027 -0.3379 0.0963
											}
										}
									}
								}
							}
						}
					}
				}
			}
		}
	}
	JOINT mixamorig:RightUpLeg
	{
		OFFSET	-9.1245	-6.6564	-0.0554
		CHANNELS 3 Zrotation Yrotation Xrotation
		JOINT mixamorig:RightLeg
		{
			OFFSET	0.0000	-40.5610	-1.7662
			CHANNELS 3 Zrotation Yrotation Xrotation
			JOINT mixamorig:RightFoot
			{
				OFFSET	0.4978	-41.9625	-3.3512
				CHANNELS 3 Zrotation Yrotation Xrotation
				JOINT mixamorig:RightToeBase
				{
					OFFSET	-0.3734	-10.4922	12.6406
					CHANNELS 3 Zrotation Yrotation Xrotation
					End Site
					{
						OFFSET 0.0000 0.0000 9.9925
					}
				}
			}
		}
	}
	JOINT mixamorig:LeftUpLeg
	{
		OFFSET	9.1245	-6.6564	-0.0554
		CHANNELS 3 Zrotation Yrotation Xrotation
		JOINT mixamorig:LeftLeg
		{
			OFFSET	-0.0000	-40.5610	-1.7662
			CHANNELS 3 Zrotation Yrotation Xrotation
			JOINT mixamorig:LeftFoot
			{
				OFFSET	-0.4978	-41.9625	-3.3512
				CHANNELS 3 Zrotation Yrotation Xrotation
				JOINT mixamorig:LeftToeBase
				{
					OFFSET	0.3734	-10.4922	12.6406
					CHANNELS 3 Zrotation Yrotation Xrotation
					End Site
					{
						OFFSET -0.0000 0.0000 9.9925
					}
				}
			}
		}
	}
}
MOTION
Frames: 8
Frame Time: 0.0333333
1.7789 90.6094 -5.7239 2.3340 -1.8831 23.2817 -4.5938 -6.0566 12.7338 -1.3816 -1.6379 2.1439 -1.3593 -1.5966 2.1693 0.4465 2.0417 1.3694 3.0943 5.3952 -19.7578 0.0000 -0.0000 0.0000 0.0000 -0.0000 0.0000 0.0000 -0.0000 0.0000 -17.9865 -21.8869 6.1538 -16.0604 -21.2575 -44.0548 168.0604 -81.3936 -170.1797 -9.8878 26.7642 -105.4731 -56.8050 -6.6780 2.7172 -66.0650 -2.2266 3.0215 -32.5924 -1.6500 1.2359 13.0279 -44.4557 34.8650 -36.0758 9.0668 -42.3146 15.6332 16.0320 11.7727 -36.8890 -12.0679 -0.0797 -80.9279 -3.6226 1.5425 -32.2443 -1.6129 0.0080 -66.3286 -7.6473 3.1023 -54.4562 -3.0989 0.1488 -49.9108 -2.6622 0.1018 -83.0059 -5.9515 4.2522 -39.8550 -1.7781 1.7078 -24.3915 -1.2460 0.9181 -1.5972 11.4881 3.4874 15.8095 56.1115 -3.9602 -14.3560 84.7559 -16.3017 -0.8140 16.9260 -35.7011 60.7831 2.3598 3.7728 100.3175 3.2354 6.4052 28.2320 2.0538 1.0575 29.1820 31.5826 70.2545 22.2082 -12.7277 39.2446 -11.6395 -42.0833 32.1921 21.9864 6.7008 0.1039 105.4020 5.4003 4.0944 52.5874 3.6734 0.7209 78.1540 7.6756 4.7977 98.6457 5.9995 3.4823 14.3286 1.0705 -0.2280 72.8945 7.6985 4.3724 75.8053 3.3929 4.7509 46.6022 2.8947 2.4232 -1.5709 0.9142 -71.3741 -3.6182 2.4363 103.2414 7.9745 -3.9668 5.6507 0.0000 0.0000 -3.3828 -6.9353 4.4252 -28.5067 0.1154 1.0026 38.7649 1.1410 2.8445 -29.5474 -0.0000 0.0000 -7.4049 
2.2662 91.1839 -5.5958 -0.2821 -2.3096 23.7165 -2.3732 -10.2458 12.2652 -0.9739 -2.7298 1.9399 -0.9312 -2.6799 1.9793 0.3136 2.7280 1.1516 0.8145 11.4795 -18.8437 0.0000 -0.0000 0.0000 0.0000 -0.0000 0.0000 0.0000 -0.0000 0.0000 -17.5947 -22.2701 6.1592 -17.5188 -20.2021 -46.5509 171.5691 -76.6529 -173.7501 -9.3252 31.3788 -104.5168 -56.8050 -6.6780 2.7172 -66.0650 -2.2266 3.0215 -32.5924 -1.6500 1.2359 13.0279 -44.4557 34.8650 -36.0758 9.0668 -42.3146 15.6332 16.0320 11.7727 -36.8890 -12.0679 -0.0797 -80.9279 -3.6226 1.5425 -32.2443 -1.6129 0.0080 -66.3286 -7.6473 3.1023 -54.4562 -3.0989 0.1488 -49.9108 -2.6622 0.1018 -83.0059 -5.9515 4.2522 -39.8550 -1.7781 1.7078 -24.3915 -1.2460 0.9181 -0.4450 12.5370 2.8297 11.3871 55.1399 -7.5372 -21.2081 86.2538 -23.1742 1.5671 17.6342 -37.0918 60.7831 2.3598 3.7728 100.3175 3.2354 6.4052 28.2320 2.0538 1.0575 29.1820 31.5826 70.2545 22.2082 -12.7276 39.2446 -11.6395 -42.0833 32.1920 21.9864 6.7008 0.1039 105.4020 5.4003 4.0944 52.5875 3.6734 0.7209 78.1540 7.6756 4.7977 98.6457 5.9995 3.4823 14.3286 1.0705 -0.2279 72.8945 7.6985 4.3724 75.8053 3.3929 4.7509 46.6023 2.8947 2.4232 -0.5840 3.2130 -79.1974 -2.8294 1.0763 91.7464 6.7637 -3.3191 3.4248 0.0000 -0.0000 -3.6154 -4.4676 6.6370 -11.5582 0.5894 1.0744 21.3386 -0.3215 2.4992 -21.8994 -0.0000 0.0000 -15.7456 
2.3805 91.7652 -5.1431 -2.2127 -3.9602 24.1701 -0.8674 -12.2205 11.7955 -0.7910 -3.2503 1.8544 -0.7418 -3.1966 1.8990 0.3603 2.9911 0.8978 -0.7408 15.2524 -18.4576 0.0000 -0.0000 0.0000 0.0000 -0.0000 0.0000 0.0000 -0.0000 0.0000 -16.8581 -21.3781 5.7729 -18.4398 -22.2418 -47.6203 172.7200 -73.6715 -174.9400 -9.1647 35.8171 -103.1298 -56.8050 -6.6780 2.7172 -66.0650 -2.2266 3.0215 -32.5924 -1.6500 1.2359 13.0279 -44.4557 34.8650 -36.0757 9.0668 -42.3146 15.6332 16.0320 11.7727 -36.8890 -12.0679 -0.0797 -80.9279 -3.6226 1.5425 -32.2443 -1.6129 0.0080 -66.3286 -7.6473 3.1023 -54.4562 -3.0990 0.1488 -49.9108 -2.6622 0.1018 -83.0059 -5.9515 4.2522 -39.8550 -1.7781 1.7078 -24.3915 -1.2460 0.9181 -0.2372 11.9953 2.6951 7.6132 54.7948 -10.9014 -36.3525 87.6210 -38.3388 2.2104 18.1332 -39.3696 60.7831 2.3598 3.7728 100.3175 3.2354 6.4052 28.2320 2.0538 1.0574 29.1820 31.5826 70.2545 22.2082 -12.7276 39.2446 -11.6395 -42.0833 32.1920 21.9864 6.7008 0.1039 105.4020 5.4003 4.0944 52.5875 3.6734 0.7209 78.1540 7.6756 4.7977 98.6457 5.9995 3.4823 14.3286 1.0705 -0.2279 72.8945 7.6985 4.3724 75.8053 3.3929 4.7509 46.6023 2.8947 2.4232 1.5676 4.9744 -81.0363 0.7883 1.3504 74.3615 -0.0299 -5.1818 0.4357 0.0000 0.0000 -3.8770 -3.0893 11.9232 -3.9877 1.6506 -0.5055 16.3880 -1.2961 2.8969 5.5039 -1.8438 -0.9143 -40.9082 
2.2488 92.3079 -4.4460 -3.1521 -5.7355 24.2350 -0.5063 -13.0886 11.9314 -0.8123 -3.4854 1.9637 -0.7566 -3.4254 2.0140 0.3293 3.0289 0.7243 -1.7806 16.9824 -19.1561 0.0000 -0.0000 0.0000 0.0000 -0.0000 0.0000 0.0000 -0.0000 0.0000 -16.6101 -20.9715 5.6158 -19.1669 -23.4418 -47.2536 172.9363 -72.9525 -175.1657 -8.2237 36.8137 -102.3381 -56.8050 -6.6780 2.7172 -66.0650 -2.2266 3.0215 -32.5924 -1.6500 1.2359 13.0279 -44.4557 34.8650 -36.0758 9.0668 -42.3145 15.6332 16.0320 11.7727 -36.8890 -12.0679 -0.0797 -80.9278 -3.6226 1.5426 -32.2443 -1.6129 0.0080 -66.3286 -7.6473 3.1023 -54.4562 -3.0990 0.1488 -49.9108 -2.6622 0.1018 -83.0059 -5.9515 4.2522 -39.8550 -1.7781 1.7079 -24.3915 -1.2460 0.9181 -0.4063 11.1091 2.8661 5.8322 54.9498 -12.5966 -41.8313 87.8684 -43.8218 2.5729 18.5674 -39.9483 60.7831 2.3598 3.7728 100.3175 3.2354 6.4052 28.2320 2.0538 1.0575 29.1820 31.5826 70.2545 22.2082 -12.7276 39.2446 -11.6394 -42.0833 32.1920 21.9864 6.7008 0.1039 105.4020 5.4003 4.0944 52.5874 3.6734 0.7209 78.1540 7.6756 4.7977 98.6457 5.9995 3.4823 14.3286 1.0705 -0.2279 72.8945 7.6985 4.3724 75.8053 3.3929 4.7509 46.6023 2.8947 2.4232 2.6103 6.6458 -78.2018 -0.0112 1.8822 55.4934 -0.5601 -4.4750 -1.2032 0.0000 -0.0000 -4.5876 -2.1742 15.8936 1.2759 2.6772 -2.9197 16.6565 -3.0698 4.3467 17.1810 -4.4801 -1.0488 -27.9141 
2.0253 92.6605 -3.7871 -3.8732 -7.4059 24.0711 -0.3935 -13.4873 12.3531 -0.9001 -3.6091 2.1507 -0.8372 -3.5415 2.2066 0.2498 2.9832 0.5981 -2.6749 17.8590 -20.2147 0.0000 -0.0000 0.0000 0.0000 -0.0000 0.0000 0.0000 -0.0000 0.0000 -16.5481 -20.7194 5.5381 -20.3776 -24.5677 -45.9947 172.6775 -73.8060 -174.8956 -7.0639 35.5526 -101.5493 -56.8050 -6.6780 2.7172 -66.0650 -2.2266 3.0215 -32.5924 -1.6500 1.2359 13.0279 -44.4557 34.8650 -36.0758 9.0668 -42.3146 15.6332 16.0320 11.7727 -36.8890 -12.0679 -0.0797 -80.9279 -3.6226 1.5426 -32.2443 -1.6129 0.0080 -66.3286 -7.6473 3.1023 -54.4562 -3.0990 0.1488 -49.9108 -2.6622 0.1018 -83.0059 -5.9515 4.2522 -39.8550 -1.7781 1.7078 -24.3915 -1.2460 0.9181 -0.0965 10.5430 3.1994 5.2603 54.8702 -13.1823 -38.1535 87.7108 -40.1412 3.4664 18.6683 -39.2129 60.7831 2.3598 3.7728 100.3175 3.2354 6.4052 28.2320 2.0538 1.0575 29.1820 31.5826 70.2545 22.2082 -12.7276 39.2446 -11.6395 -42.0833 32.1920 21.9864 6.7008 0.1039 105.4020 5.4003 4.0944 52.5875 3.6734 0.7209 78.1540 7.6756 4.7977 98.6457 5.9995 3.4823 14.3286 1.0705 -0.2279 72.8945 7.6985 4.3724 75.8053 3.3929 4.7509 46.6022 2.8947 2.4232 3.4933 8.3367 -69.9635 -2.3466 0.5683 31.7590 0.5532 -2.8845 0.8967 0.0000 -0.0000 -5.2389 -1.3541 18.8683 -2.6307 1.3651 -6.4084 32.9669 -5.4966 5.8746 13.2146 -0.0000 0.0000 -2.2593 
1.6222 92.6179 -3.0442 -4.3862 -8.8864 23.3436 -0.0447 -12.6745 12.9925 -0.9148 -3.3832 2.3507 -0.8496 -3.3105 2.4021 0.0981 2.7530 0.6650 -3.3476 17.2132 -20.4057 0.0000 -0.0000 0.0000 0.0000 -0.0000 0.0000 0.0000 -0.0000 0.0000 -16.5196 -20.4240 5.4571 -22.4670 -26.2802 -44.3180 171.8713 -75.9823 -174.0611 -6.6049 32.9203 -100.4559 -56.8050 -6.6780 2.7172 -66.0650 -2.2266 3.0215 -32.5924 -1.6500 1.2359 13.0279 -44.4557 34.8650 -36.0758 9.0668 -42.3146 15.6332 16.0320 11.7727 -36.8890 -12.0679 -0.0797 -80.9278 -3.6226 1.5425 -32.2443 -1.6129 0.0080 -66.3286 -7.6473 3.1023 -54.4562 -3.0990 0.1488 -49.9108 -2.6622 0.1018 -83.0059 -5.9515 4.2522 -39.8550 -1.7781 1.7079 -24.3915 -1.2460 0.9181 0.6234 9.9810 3.6627 5.3836 54.7977 -12.8144 -30.6169 87.2614 -32.5976 4.3812 18.3055 -38.0248 60.7831 2.3598 3.7727 100.3175 3.2354 6.4052 28.2320 2.0538 1.0574 29.1820 31.5826 70.2545 22.2082 -12.7276 39.2446 -11.6395 -42.0833 32.1920 21.9864 6.7008 0.1039 105.4020 5.4003 4.0944 52.5875 3.6734 0.7209 78.1540 7.6756 4.7977 98.6457 5.9995 3.4823 14.3286 1.0705 -0.2279 72.8945 7.6985 4.3724 75.8053 3.3928 4.7509 46.6023 2.8947 2.4232 3.7263 9.9738 -59.5756 -2.8843 -2.2168 14.3154 1.6474 -1.2980 -0.6436 0.0000 -0.0000 -5.3621 -0.7622 20.8812 -6.0023 -1.4106 -8.9706 48.9055 -6.2128 7.5291 12.7204 0.0000 -0.0000 4.4504 
1.1339 91.9101 -2.2227 -4.6490 -10.2438 22.0833 0.6220 -10.0152 13.6517 -0.8173 -2.6166 2.4894 -0.7621 -2.5459 2.5225 -0.1103 2.2596 0.9274 -3.7832 14.4979 -19.8770 0.0000 -0.0000 0.0000 0.0000 -0.0000 0.0000 0.0000 -0.0000 0.0000 -17.0913 -20.2680 5.5332 -24.5252 -28.3617 -42.4330 168.2619 -81.2155 -170.3836 -8.7923 27.9117 -100.0555 -56.8050 -6.6780 2.7172 -66.0650 -2.2266 3.0215 -32.5924 -1.6500 1.2359 13.0279 -44.4557 34.8650 -36.0758 9.0668 -42.3146 15.6332 16.0320 11.7727 -36.8890 -12.0679 -0.0797 -80.9279 -3.6226 1.5426 -32.2443 -1.6129 0.0080 -66.3286 -7.6473 3.1023 -54.4562 -3.0990 0.1488 -49.9108 -2.6622 0.1018 -83.0059 -5.9515 4.2522 -39.8550 -1.7781 1.7078 -24.3915 -1.2460 0.9181 1.0126 8.0994 4.3644 6.9962 56.3701 -9.7136 -18.2233 85.7290 -20.1823 3.0548 16.6881 -37.3397 60.7831 2.3598 3.7728 100.3175 3.2354 6.4052 28.2320 2.0538 1.0575 29.1820 31.5826 70.2545 22.2082 -12.7276 39.2446 -11.6395 -42.0833 32.1920 21.9864 6.7008 0.1039 105.4020 5.4003 4.0944 52.5875 3.6734 0.7209 78.1540 7.6756 4.7977 98.6457 5.9995 3.4823 14.3286 1.0705 -0.2279 72.8945 7.6985 4.3724 75.8053 3.3928 4.7509 46.6023 2.8947 2.4232 2.3580 12.7907 -58.1273 -3.1108 -4.0672 24.6403 -1.0340 -0.0002 5.4940 0.0000 0.0000 -2.0524 -1.5109 21.8347 -12.7670 -6.0616 -9.2973 69.0540 -3.3930 10.5896 9.0082 0.0000 -0.0000 3.1026 
0.8364 91.0815 -1.3478 -4.5826 -11.6103 21.0830 1.1618 -5.5958 14.5786 -0.6476 -1.3897 2.5096 -0.6187 -1.3320 2.5202 -0.3449 1.5739 1.0860 -4.2020 10.3220 -20.1646 0.0000 -0.0000 0.0000 0.0000 -0.0000 0.0000 0.0000 -0.0000 0.0000 -17.0823 -20.2805 5.5295 -25.5319 -29.1666 -41.0453 155.4183 -86.1471 -157.4746 -11.4689 23.1465 -100.8035 -56.8050 -6.6780 2.7172 -66.0650 -2.2266 3.0215 -32.5924 -1.6500 1.2359 13.0279 -44.4557 34.8650 -36.0758 9.0668 -42.3146 15.6331 16.0320 11.7727 -36.8890 -12.0679 -0.0797 -80.9279 -3.6226 1.5426 -32.2443 -1.6129 0.0080 -66.3286 -7.6473 3.1023 -54.4562 -3.0990 0.1488 -49.9108 -2.6622 0.1018 -83.0059 -5.9515 4.2522 -39.8550 -1.7781 1.7078 -24.3915 -1.2460 0.9181 -0.5313 5.8073 4.9977 10.8822 59.1365 -5.0960 -12.1363 83.9517 -14.0715 -0.0792 14.6970 -37.1678 60.7831 2.3598 3.7728 100.3175 3.2354 6.4052 28.2320 2.0538 1.0574 29.1820 31.5826 70.2545 22.2082 -12.7276 39.2446 -11.6395 -42.0833 32.1921 21.9864 6.7008 0.1039 105.4020 5.4003 4.0944 52.5875 3.6734 0.7209 78.1540 7.6756 4.7977 98.6456 5.9995 3.4823 14.3286 1.0705 -0.2279 72.8945 7.6985 4.3724 75.8053 3.3929 4.7509 46.6023 2.8947 2.4232 1.8382 14.6199 -56.6469 -3.7305 -3.6102 42.3291 -2.1075 0.0198 -6.0175 0.0000 -0.0000 0.2909 -3.0375 23.5949 -23.0468 -9.9453 -6.2604 87.3779 3.4246 16.1567 8.3367 0.0000 -0.0000 4.3443 
